<mxfile host="drawio-plugin" modified="2022-11-23T04:32:40.785Z" agent="5.0 (Windows NT 6.2; Win64; x64) AppleWebKit/537.36 (KHTML, like Gecko) Chrome/98.0.4758.102 Safari/537.36" version="15.5.4" etag="_xYz9HHvPK66qSYBQgJn" type="embed"><diagram id="DCJ9wXoPZiAAIGqa85_C" name="Page-1"><mxGraphModel dx="948" dy="465" grid="1" gridSize="10" guides="1" tooltips="1" connect="1" arrows="1" fold="1" page="1" pageScale="1" pageWidth="850" pageHeight="1100" math="0" shadow="0"><root><mxCell id="0"/><mxCell id="1" parent="0"/><mxCell id="2" value=":ScrabbleModel" style="shape=umlLifeline;perimeter=lifelinePerimeter;whiteSpace=wrap;html=1;container=1;collapsible=0;recursiveResize=0;outlineConnect=0;" vertex="1" parent="1"><mxGeometry x="140" y="30" width="100" height="150" as="geometry"/></mxCell><mxCell id="4" value="" style="html=1;points=[];perimeter=orthogonalPerimeter;" vertex="1" parent="2"><mxGeometry x="45" y="50" width="10" height="80" as="geometry"/></mxCell><mxCell id="3" value="blankTile:Tile" style="shape=umlLifeline;perimeter=lifelinePerimeter;whiteSpace=wrap;html=1;container=1;collapsible=0;recursiveResize=0;outlineConnect=0;" vertex="1" parent="1"><mxGeometry x="270" y="30" width="100" height="150" as="geometry"/></mxCell><mxCell id="6" value="" style="html=1;points=[];perimeter=orthogonalPerimeter;" vertex="1" parent="3"><mxGeometry x="45" y="70" width="10" height="30" as="geometry"/></mxCell><mxCell id="5" value="ResetBlankTileLetter" style="ellipse;whiteSpace=wrap;html=1;" vertex="1" parent="1"><mxGeometry x="10" y="20" width="120" height="60" as="geometry"/></mxCell><mxCell id="7" value="setLetter(BLANK)" style="html=1;verticalAlign=bottom;endArrow=block;entryX=0;entryY=0;rounded=0;" edge="1" target="6" parent="1" source="4"><mxGeometry relative="1" as="geometry"><mxPoint x="245" y="90" as="sourcePoint"/></mxGeometry></mxCell></root></mxGraphModel></diagram></mxfile>